<?xml version="1.0" standalone="no"?>
<!DOCTYPE svg PUBLIC "-//W3C//DTD SVG 20010904//EN"
 "http://www.w3.org/TR/2001/REC-SVG-20010904/DTD/svg10.dtd">
<svg version="1.0" xmlns="http://www.w3.org/2000/svg"
 width="736.000000pt" height="736.000000pt" viewBox="0 0 736.000000 736.000000"
 preserveAspectRatio="xMidYMid meet">
<metadata>
Created by potrace 1.14, written by Peter Selinger 2001-2017
</metadata>
<g transform="translate(0.000000,736.000000) scale(0.100000,-0.100000)"
fill="#000000" stroke="none">
<path d="M1700 7354 c-14 -2 -63 -9 -110 -15 -108 -14 -126 -16 -148 -23 -9
-3 -30 -7 -45 -10 -16 -3 -65 -17 -110 -31 -665 -214 -1159 -788 -1263 -1469
-3 -21 -9 -48 -12 -60 -4 -11 -7 -930 -8 -2041 l-2 -2020 23 -136 c35 -204 86
-363 169 -529 280 -559 829 -942 1446 -1008 87 -9 3997 -9 4080 0 76 9 111 15
201 33 80 17 260 73 274 86 5 5 15 9 22 9 23 0 213 99 303 157 275 180 501
432 645 722 75 149 140 341 160 471 4 25 9 54 11 65 2 11 8 47 12 80 9 78 9
4000 0 4085 -49 422 -227 794 -525 1096 -271 274 -626 456 -1013 521 -97 16
-251 17 -2095 19 -1094 1 -2001 0 -2015 -2z"/>
</g>
</svg>
